# xmcd
#
# Track frame offsets:
#	150
#	16224
#	25343
#	41773
#	59505
#	74663
#	93214
#	103275
#	110342
#	129400
#	151654
#	172265
#	192053
#	210773
#
# Disc length: 3068 seconds
#
# Revision: 0
# Processed by: cddbd v1.5.2PL0 Copyright (c) Steve Scherf et al.
# Submitted via: audiograbber 1.83.01
#
DISCID=ba0bfa0e
DTITLE=диажояои - г дийг лас охомг
DYEAR=2006
DGENRE=емтевма
TTITLE0=лпасгс - ьихуяои йаядиас
TTITLE1=яелпоутсийа - то астеяи йаи г еувг
TTITLE2=ANEMOS - тоу еяыта йаи тгс жытиас
TTITLE3=хакассимос - бяес то йкеиди
TTITLE4=лпасгс - астяа жытиа яинте
TTITLE5=йитяима подгката - танидеуы то "ецы" лоу
TTITLE6=яелпоутсийа - памы апо та суммежа
TTITLE7=яелпоутсийа - ахгма-хессакомийг
TTITLE8=хгбаиос - ацапг
TTITLE9=баядгс - исыс
TTITLE10=лийяо - то дылатио
TTITLE11=ANEMOS - исыс г ацапг
TTITLE12=яелпоутсийа - о лийяос пяицйгпас
TTITLE13=лийяо - NETRINO
EXTD=
EXTT0=
EXTT1=
EXTT2=
EXTT3=
EXTT4=
EXTT5=
EXTT6=
EXTT7=
EXTT8=
EXTT9=
EXTT10=
EXTT11=
EXTT12=
EXTT13=
PLAYORDER=
